<svg width="131" height="230" viewBox="0 0 131 230" fill="none" xmlns="http://www.w3.org/2000/svg">
<path d="M94.3803 63.464C93.321 62.4169 92.0987 61.4969 91.2444 60.3071C83.3365 49.2259 73.2 40.5526 62.3859 32.655C52.7487 25.6122 42.3591 20.0748 31.0291 16.6854C26.6197 15.3688 22.1024 14.4869 17.2123 13.2973C21.8888 9.31067 27.3798 6.36173 29.5672 0.109808C25.1639 3.67122 21.0475 7.68304 16.2819 10.6667C11.5074 13.6565 6.08128 15.6336 0.48001 18.272C9.11154 22.4047 18.7515 24.7155 23.6305 34.391C24.388 29.2031 21.5171 26.4842 7.32694 18.28C9.80338 16.5709 12.0504 15.1597 15.244 15.5656C33.186 17.8265 49.0711 25.4047 63.6761 36.3354C72.2085 42.7223 79.9685 50.0339 86.9542 58.0777C94.0551 66.249 100.482 74.9165 105.907 84.4062C113.305 97.3221 119.365 110.712 123.437 124.933C128.251 141.762 130.275 158.804 127.762 175.905C124.973 194.967 117.53 211.791 104.431 225.621C103.631 226.468 102.905 227.402 102.203 228.333C102.061 228.528 102.146 228.898 102.11 229.379C103.431 230.327 104.239 229.281 104.976 228.534C112.245 221.18 117.932 212.673 122.248 203.184C131.113 183.725 132.665 163.075 129.46 141.654C126.902 124.569 120.915 108.527 113.402 92.9534C112.082 90.22 110.109 87.8029 108.541 85.1874C107.867 84.066 107.482 82.771 106.963 81.569C102.777 75.5329 98.5819 69.5031 94.3803 63.464Z" fill="black" fill-opacity="0.6"/>
</svg>
